<svg data-v-423bf9ae="" xmlns="http://www.w3.org/2000/svg" viewBox="0 0 599 90" class="iconLeft"><!----><!----><!----><g data-v-423bf9ae="" id="78c5d57d-4eef-41ee-a277-7778a0ed8718" fill="white" transform="matrix(6.066733864221661,0,0,6.066733864221661,101.08190885556078,8.933266612615498)"><path d="M11.07 10.64L1.47 10.64L1.47 1.24L10.98 1.24L10.98 3.25L4.07 3.25L4.07 4.80L10.62 4.80L10.62 6.80L4.07 6.80L4.07 8.63L11.07 8.63L11.07 10.64ZM18.63 7.07L13.03 7.07L13.03 4.83L18.63 4.83L18.63 7.07ZM29.93 3.29L25.94 3.29L25.94 10.64L23.40 10.64L23.40 3.29L19.41 3.29L19.41 1.24L29.93 1.24L29.93 3.29ZM40.26 1.72L40.26 3.89Q39.99 3.76 39.55 3.60Q39.12 3.43 38.56 3.28Q38.01 3.14 37.36 3.04Q36.71 2.94 36.03 2.94L36.03 2.94Q35.48 2.94 35.09 2.97Q34.71 3.01 34.44 3.06Q34.18 3.12 34.03 3.19Q33.87 3.26 33.79 3.34Q33.71 3.41 33.68 3.49Q33.66 3.56 33.66 3.62L33.66 3.62Q33.66 3.83 33.87 3.98Q34.07 4.14 34.43 4.26Q34.78 4.38 35.25 4.48Q35.72 4.59 36.25 4.70Q36.78 4.81 37.35 4.95Q37.91 5.08 38.44 5.26Q38.97 5.43 39.44 5.67Q39.92 5.91 40.27 6.22Q40.63 6.54 40.83 6.95Q41.04 7.36 41.04 7.88L41.04 7.88Q41.04 8.56 40.80 9.04Q40.56 9.53 40.16 9.86Q39.76 10.20 39.23 10.40Q38.71 10.60 38.13 10.71Q37.55 10.82 36.96 10.86Q36.37 10.89 35.83 10.89L35.83 10.89Q34.44 10.89 33.25 10.66Q32.07 10.43 31.16 10.09L31.16 10.09L31.16 7.85Q32.09 8.37 33.29 8.66Q34.49 8.96 35.86 8.96L35.86 8.96Q36.67 8.96 37.18 8.87Q37.69 8.78 37.97 8.65Q38.26 8.52 38.36 8.36Q38.47 8.20 38.47 8.06L38.47 8.06Q38.47 7.83 38.26 7.67Q38.06 7.50 37.70 7.37Q37.34 7.25 36.87 7.14Q36.40 7.03 35.87 6.93Q35.34 6.82 34.78 6.70Q34.22 6.58 33.69 6.41Q33.16 6.24 32.69 6.02Q32.22 5.80 31.86 5.49Q31.51 5.19 31.30 4.79Q31.10 4.39 31.10 3.86L31.10 3.86Q31.10 3.24 31.32 2.79Q31.53 2.34 31.91 2.02Q32.28 1.70 32.77 1.50Q33.26 1.31 33.80 1.20Q34.34 1.09 34.89 1.05Q35.44 1.00 35.94 1.00L35.94 1.00Q36.49 1.00 37.07 1.06Q37.65 1.11 38.21 1.21Q38.77 1.31 39.29 1.44Q39.81 1.57 40.26 1.72L40.26 1.72ZM53.94 10.64L51.40 10.64L51.40 9.71Q50.91 9.98 50.36 10.19Q49.80 10.39 49.20 10.53Q48.60 10.68 47.96 10.75Q47.32 10.82 46.67 10.82L46.67 10.82Q45.91 10.82 45.20 10.68Q44.50 10.53 43.95 10.21Q43.40 9.89 43.07 9.37Q42.74 8.85 42.74 8.10L42.74 8.10Q42.74 7.15 43.26 6.52Q43.78 5.89 44.84 5.48Q45.91 5.08 47.54 4.86Q49.17 4.64 51.40 4.52L51.40 4.52L51.40 4.32Q51.40 4.09 51.28 3.86Q51.15 3.63 50.83 3.46Q50.50 3.28 49.94 3.17Q49.38 3.06 48.50 3.06L48.50 3.06Q47.81 3.06 47.14 3.13Q46.46 3.21 45.84 3.33Q45.21 3.45 44.65 3.62Q44.09 3.78 43.63 3.96L43.63 3.96L43.63 1.70Q44.11 1.58 44.71 1.46Q45.30 1.35 45.94 1.26Q46.59 1.18 47.24 1.12Q47.90 1.07 48.50 1.07L48.50 1.07Q49.68 1.07 50.68 1.27Q51.68 1.46 52.40 1.87Q53.12 2.28 53.53 2.91Q53.94 3.54 53.94 4.41L53.94 4.41L53.94 10.64ZM51.40 7.59L51.40 6.35Q49.94 6.41 48.91 6.51Q47.89 6.61 47.22 6.75Q46.54 6.88 46.15 7.04Q45.77 7.20 45.58 7.36Q45.38 7.53 45.34 7.69Q45.29 7.85 45.29 7.99L45.29 7.99Q45.29 8.16 45.38 8.31Q45.47 8.46 45.69 8.58Q45.92 8.70 46.29 8.76Q46.66 8.83 47.22 8.83L47.22 8.83Q47.84 8.83 48.43 8.74Q49.03 8.64 49.56 8.47Q50.09 8.31 50.56 8.08Q51.03 7.85 51.40 7.59L51.40 7.59ZM67.55 8.05L67.55 8.05Q67.55 8.59 67.40 9.00Q67.26 9.40 67.00 9.69Q66.75 9.98 66.39 10.16Q66.03 10.34 65.59 10.45Q65.16 10.55 64.67 10.60Q64.18 10.64 63.65 10.64L63.65 10.64L56.83 10.64L56.83 1.24L63.53 1.24Q63.93 1.24 64.34 1.28Q64.74 1.31 65.11 1.40Q65.48 1.50 65.80 1.66Q66.12 1.83 66.35 2.09Q66.59 2.36 66.72 2.73Q66.86 3.11 66.86 3.62L66.86 3.62Q66.86 4.54 66.40 5.08Q65.95 5.61 64.98 5.79L64.98 5.79Q65.67 5.84 66.15 6.00Q66.64 6.16 66.95 6.44Q67.26 6.71 67.40 7.11Q67.55 7.51 67.55 8.05ZM64.38 4.03L64.38 4.03Q64.38 3.85 64.33 3.69Q64.27 3.53 64.13 3.40Q63.98 3.28 63.74 3.21Q63.49 3.13 63.11 3.13L63.11 3.13L59.37 3.13L59.37 4.89L63.11 4.89Q63.49 4.89 63.74 4.83Q63.98 4.76 64.13 4.64Q64.27 4.53 64.33 4.36Q64.38 4.20 64.38 4.03ZM64.97 7.75L64.97 7.75Q64.97 7.43 64.86 7.24Q64.75 7.04 64.52 6.94Q64.29 6.83 63.92 6.79Q63.55 6.76 63.03 6.76L63.03 6.76L59.37 6.76L59.37 8.75L63.03 8.75Q63.55 8.75 63.92 8.72Q64.29 8.68 64.52 8.57Q64.75 8.46 64.86 8.27Q64.97 8.07 64.97 7.75ZM82.01 5.95L82.01 5.95Q82.01 7.16 81.57 8.08Q81.12 9.01 80.29 9.63Q79.47 10.25 78.29 10.57Q77.11 10.89 75.64 10.89L75.64 10.89Q74.17 10.89 72.98 10.57Q71.80 10.25 70.96 9.63Q70.13 9.01 69.68 8.08Q69.23 7.16 69.23 5.95L69.23 5.95Q69.23 4.74 69.68 3.81Q70.13 2.88 70.96 2.26Q71.80 1.64 72.98 1.32Q74.17 1.00 75.64 1.00L75.64 1.00Q77.11 1.00 78.29 1.32Q79.47 1.64 80.29 2.26Q81.12 2.88 81.57 3.81Q82.01 4.74 82.01 5.95ZM79.45 5.95L79.45 5.95Q79.45 5.42 79.28 4.90Q79.11 4.38 78.69 3.96Q78.26 3.54 77.52 3.28Q76.78 3.02 75.64 3.02L75.64 3.02Q74.87 3.02 74.29 3.14Q73.71 3.26 73.29 3.47Q72.86 3.68 72.58 3.97Q72.29 4.25 72.12 4.58Q71.95 4.90 71.88 5.25Q71.80 5.61 71.80 5.95L71.80 5.95Q71.80 6.30 71.88 6.65Q71.95 7.01 72.12 7.33Q72.29 7.66 72.58 7.94Q72.86 8.22 73.29 8.43Q73.71 8.63 74.29 8.75Q74.87 8.87 75.64 8.87L75.64 8.87Q76.78 8.87 77.52 8.61Q78.26 8.35 78.69 7.94Q79.11 7.52 79.28 7.00Q79.45 6.47 79.45 5.95Z"></path></g><!----><g data-v-423bf9ae="" id="da701e13-cbf6-4e88-95d8-c53b63f351d3" transform="matrix(1,0,0,1,-5,-5)" stroke="none" fill="white"><path d="M78.197 33.125v5.625h11.25v50.625H61.322V72.5h-22.5v16.875H10.697V38.75h11.25v-5.625H5.072V95h90V33.125z"></path><path d="M16.322 55.625h16.875v11.25H16.322zM16.322 72.5h16.875v11.25H16.322zM66.947 55.625h16.875v11.25H66.947zM66.947 72.5h16.875v11.25H66.947zM38.822 55.625h22.5v11.25h-22.5zM72.572 5h-45v39.375h45V5zm-8.083 24.56h-9.403v9.893H45.055V29.56h-9.4v-9.855h9.4V9.9h10.031v9.804h9.403v9.856z"></path></g><!----></svg>